# xmcd
#
# Track frame offsets: 
#        150
#        10947
#        20370
#        29885
#        46225
#        69322
#        80736
#        92714
#        120628
#        157182
#        183592
#        205564
#        225684
#        245996
#        265216
#        287445
#        307262
#        325115
#        336325
#
# Disc length: 4799 seconds
#
# Revision: 0
# Processed by: cddbd v1.5.1PL2 Copyright (c) Steve Scherf et al.
# Submitted via: ExactAudioCopy v0.95b3
#
DISCID=1512bd13
DTITLE=Janis Joplin - Absolute Janis [CD1]
DYEAR=1997
DGENRE=Folk/Rock
TTITLE0=Easy Rider
TTITLE1=Coo Coo
TTITLE2=Down On Me
TTITLE3=Call On Me
TTITLE4=Women Is Losers
TTITLE5=Intruder
TTITLE6=Bye Bye Baby
TTITLE7=Road Block
TTITLE8=Ball And Chain
TTITLE9=Combination Of The Two
TTITLE10=I Need A Man To Love
TTITLE11=Piece Of My Heart
TTITLE12=Turtle Blues
TTITLE13=Oh, Sweet Mary
TTITLE14=Catch Me Daddy
TTITLE15=Kozmic Blues
TTITLE16=Try (Just A Little Bit Harder)
TTITLE17=Dear Landlord
TTITLE18=To Love Somebody
EXTD=
EXTT0=
EXTT1=
EXTT2=
EXTT3=
EXTT4=
EXTT5=
EXTT6=
EXTT7=
EXTT8=
EXTT9=
EXTT10=
EXTT11=
EXTT12=
EXTT13=
EXTT14=
EXTT15=
EXTT16=
EXTT17=
EXTT18=
PLAYORDER=
